<?xml version="1.0" encoding="UTF-8" standalone="no"?>
<!DOCTYPE svg PUBLIC "-//W3C//DTD SVG 1.1//EN" "http://www.w3.org/Graphics/SVG/1.1/DTD/svg11.dtd">
<svg width="100%" height="100%" viewBox="0 0 596 842" version="1.1" xmlns="http://www.w3.org/2000/svg" xmlns:xlink="http://www.w3.org/1999/xlink" xml:space="preserve" xmlns:serif="http://www.serif.com/" style="fill-rule:evenodd;clip-rule:evenodd;stroke-miterlimit:10;">
    <g id="roll" transform="matrix(1,0,0,1,-194,293)">
        <g>
            <path d="M449.5,255.7L353,255.7L369.7,283.6L393.3,301.1L409.2,299.5L422.3,299.5L444.6,302.3L466.8,306.6L480.5,307.4L491,307.4L491.6,255.4" style="fill:rgb(40,40,40);fill-rule:nonzero;"/>
            <path d="M534.4,255.7L631,255.7L614.3,283.6L590.7,301.1L574.4,302.3L567.8,303.9L554.5,306.3L533.4,306.6L515.8,307.4L489.6,307.4L490.6,255.4" style="fill:rgb(40,40,40);fill-rule:nonzero;"/>
        </g>
        <path d="M411.5,298.4L571.1,298.4L555.9,247.9L425.9,247.9L411.5,298.4Z" style="fill:rgb(40,40,40);fill-rule:nonzero;"/>
    </g>
    <g transform="matrix(1,0,0,1,244.095,565.906)">
        <g id="indicateurs">
            <text x="0px" y="0px" style="font-family:'Arial-BoldMT', 'Arial', sans-serif;font-weight:700;font-size:20px;fill:white;">TURBIDITY</text>
        </g>
    </g>
    <g id="contourCadran" transform="matrix(1,0,0,1,-194,293)">
        <path d="M645.4,-57L337.8,-57C320.7,-57 306.6,-43 306.6,-25.8L306.6,281.8C306.6,298.9 320.6,313 337.8,313L645.4,313C662.5,313 676.6,299 676.6,281.8L676.6,-25.8C676.6,-43 662.6,-57 645.4,-57ZM491.6,294.8C399.5,294.8 324.8,220.1 324.8,128C324.8,35.9 399.5,-38.8 491.6,-38.8C583.7,-38.8 658.4,35.9 658.4,128C658.4,220.1 583.7,294.8 491.6,294.8Z" style="fill:rgb(53,53,53);fill-rule:nonzero;"/>
    </g>
    <g id="logo_1_" transform="matrix(1,0,0,1,-194,293)">
        <g>
            <circle id="Fond" cx="337.3" cy="-26.5" r="21.9" style="fill:rgb(30,30,30);"/>
            <g>
                <path d="M325.8,-13.5C325.8,-15.7 328.3,-26.3 337.3,-26.3C346.3,-26.3 348.9,-36 348.9,-38.6" style="fill:none;fill-rule:nonzero;stroke:white;stroke-width:2px;"/>
                <rect x="329.3" y="-38.5" width="7" height="25.1" style="fill:white;"/>
                <rect x="338.3" y="-38.5" width="7" height="25.1" style="fill:white;"/>
            </g>
        </g>
    </g>
    <g id="logo_-_copie" transform="matrix(1,0,0,1,-194,293)">
        <g>
            <circle id="Fond_1_" cx="645.9" cy="-26.5" r="21.9" style="fill:rgb(30,30,30);"/>
            <g>
                <path d="M634.3,-13.5C634.3,-15.7 636.8,-26.3 645.8,-26.3C654.8,-26.3 657.4,-36 657.4,-38.6" style="fill:none;fill-rule:nonzero;stroke:white;stroke-width:2px;"/>
                <rect x="637.9" y="-38.5" width="7" height="25.1" style="fill:white;"/>
                <rect x="646.9" y="-38.5" width="7" height="25.1" style="fill:white;"/>
            </g>
        </g>
    </g>
    <g id="logo_-_copie_2" transform="matrix(1,0,0,1,-194,293)">
        <g>
            <circle id="Fond_2_" cx="645.9" cy="282" r="21.9" style="fill:rgb(30,30,30);"/>
            <g>
                <path d="M634.3,295.1C634.3,292.9 636.8,282.3 645.8,282.3C654.8,282.3 657.4,272.6 657.4,270" style="fill:none;fill-rule:nonzero;stroke:white;stroke-width:2px;"/>
                <rect x="637.9" y="270" width="7" height="25.1" style="fill:white;"/>
                <rect x="646.9" y="270" width="7" height="25.1" style="fill:white;"/>
            </g>
        </g>
    </g>
    <g id="logo_-_copie_3" transform="matrix(1,0,0,1,-194,293)">
        <g>
            <circle id="Fond_3_" cx="337.2" cy="282" r="21.9" style="fill:rgb(30,30,30);"/>
            <g>
                <path d="M325.6,295.1C325.6,292.9 328.1,282.3 337.1,282.3C346.1,282.3 348.7,272.6 348.7,270" style="fill:none;fill-rule:nonzero;stroke:white;stroke-width:2px;"/>
                <rect x="329.2" y="270" width="7" height="25.1" style="fill:white;"/>
                <rect x="338.2" y="270" width="7" height="25.1" style="fill:white;"/>
            </g>
        </g>
    </g>
</svg>
