<?xml version="1.0" encoding="UTF-8" standalone="no"?>
<!-- Generator: Adobe Illustrator 19.1.0, SVG Export Plug-In . SVG Version: 6.00 Build 0)  -->

<svg
   version="1.1"
   id="Calque_1"
   x="0px"
   y="0px"
   viewBox="194 -293 595.3 841.9"
   style="enable-background:new 194 -293 595.3 841.9;"
   xml:space="preserve"
   sodipodi:docname="cadran-small.svg"
   inkscape:version="1.3 (0e150ed6c4, 2023-07-21)"
   xmlns:inkscape="http://www.inkscape.org/namespaces/inkscape"
   xmlns:sodipodi="http://sodipodi.sourceforge.net/DTD/sodipodi-0.dtd"
   xmlns="http://www.w3.org/2000/svg"
   xmlns:svg="http://www.w3.org/2000/svg"><defs
   id="defs59" /><sodipodi:namedview
   id="namedview59"
   pagecolor="#ffffff"
   bordercolor="#000000"
   borderopacity="0.25"
   inkscape:showpageshadow="2"
   inkscape:pageopacity="0.0"
   inkscape:pagecheckerboard="0"
   inkscape:deskcolor="#d1d1d1"
   inkscape:zoom="1.1758516"
   inkscape:cx="149.25353"
   inkscape:cy="455.83983"
   inkscape:window-width="1500"
   inkscape:window-height="938"
   inkscape:window-x="-6"
   inkscape:window-y="-6"
   inkscape:window-maximized="1"
   inkscape:current-layer="Calque_1" />&#10;<style
   type="text/css"
   id="style1">&#10;	.st0{display:none;}&#10;	.st1{display:inline;}&#10;	.st2{fill:#0F6B84;}&#10;	.st3{fill:#82531A;}&#10;	.st4{fill:url(#SVGID_1_);}&#10;	.st5{fill:none;stroke:#000000;stroke-width:8;stroke-miterlimit:10;}&#10;	.st6{fill:none;stroke:#000000;stroke-width:2;stroke-miterlimit:10;}&#10;	.st7{fill:url(#SVGID_2_);}&#10;	.st8{fill:#DCFFAB;stroke:#6C823C;stroke-miterlimit:10;}&#10;	.st9{fill:none;stroke:#707070;stroke-width:2;stroke-miterlimit:10;}&#10;	.st10{fill:#A0A0A0;stroke:#707070;stroke-miterlimit:10;}&#10;	.st11{fill:#282828;}&#10;	.st12{fill:#FFFFFF;}&#10;	.st13{font-family:'Arial'; font-weight:bold;}&#10;	.st14{font-size:20px;}&#10;	.st15{fill:none;}&#10;	.st16{fill:#353535;}&#10;	.st17{fill:#1E1E1E;}&#10;	.st18{fill:none;stroke:#FFFFFF;stroke-width:2;stroke-miterlimit:10;}&#10;</style>&#10;<g
   id="masque_1_"
   class="st0">&#10;	<g
   class="st1"
   id="g2">&#10;		<path
   class="st2"
   d="m 954.5,-712.6 c 76,0 137.6,61.3 138.2,137.2 h 33.6 c 0,-94.6 -76.7,-171.2 -171.2,-171.2 -94.5,0 -171.2,76.7 -171.2,171.2 h 32.5 c 0.5,-76 62.1,-137.2 138.1,-137.2 z"
   id="path1" />&#10;		<path
   class="st3"
   d="m 1092.7,-575.4 c 0,76.3 -61.9,138.2 -138.2,138.2 -76.3,0 -138.2,-61.9 -138.2,-138.2 0,-0.1 0,-0.1 0,-0.2 h -32.5 c 0,94.6 76.7,171.2 171.2,171.2 94.5,0 171.2,-76.7 171.2,-171.2 h -33.6 c 0.1,0.1 0.1,0.1 0.1,0.2 z"
   id="path2" />&#10;	</g>&#10;	<g
   id="Calque_19"
   class="st1">&#10;	</g>&#10;</g>&#10;<g
   id="Calque_11">&#10;	&#10;		<radialGradient
   id="SVGID_1_"
   cx="490.65"
   cy="132.4"
   r="139.2"
   gradientTransform="matrix(1 0 0 1 0 -3.9)"
   gradientUnits="userSpaceOnUse">&#10;		<stop
   offset="0"
   style="stop-color:#DCFFAB"
   id="stop2" />&#10;		<stop
   offset="1"
   style="stop-color:#B7D685"
   id="stop3" />&#10;	</radialGradient>&#10;	<circle
   class="st4"
   cx="490.6"
   cy="128.5"
   r="139.2"
   id="circle3" />&#10;</g>&#10;<g
   id="diagonaleGros">&#10;	<line
   class="st5"
   x1="393.1"
   y1="226.3"
   x2="601.1"
   y2="18.3"
   id="line3" />&#10;	<line
   class="st5"
   x1="382.1"
   y1="18.3"
   x2="590.3"
   y2="226.6"
   id="line4" />&#10;	<line
   class="st5"
   x1="337.2"
   y1="127.8"
   x2="645"
   y2="127.8"
   id="line5" />&#10;	<line
   class="st5"
   x1="492.1"
   y1="267.4"
   x2="492.1"
   y2="-26.8"
   id="line6" />&#10;</g>&#10;<g
   id="diagonalePtit">&#10;	<line
   class="st6"
   x1="491.6"
   y1="-26.6"
   x2="491.6"
   y2="-10.7"
   id="line7" />&#10;	<line
   class="st6"
   x1="552"
   y1="-14.3"
   x2="545.5"
   y2="1"
   id="line8" />&#10;	<line
   class="st6"
   x1="431.3"
   y1="-14.3"
   x2="437.3"
   y2="-0.1"
   id="line9" />&#10;	<line
   class="st6"
   x1="619.2"
   y1="181.9"
   x2="633.6"
   y2="188"
   id="line10" />&#10;	<line
   class="st6"
   x1="618.6"
   y1="73.8"
   x2="633.6"
   y2="67.4"
   id="line11" />&#10;	<line
   class="st6"
   x1="349.6"
   y1="67.4"
   x2="362.9"
   y2="73.1"
   id="line12" />&#10;	<line
   class="st6"
   x1="349.6"
   y1="188"
   x2="362.8"
   y2="182.4"
   id="line13" />&#10;</g>&#10;<g
   id="Calque_15">&#10;	&#10;		<radialGradient
   id="SVGID_2_"
   cx="491.65"
   cy="131.7"
   r="132.4"
   gradientTransform="matrix(1 0 0 1 0 -3.9)"
   gradientUnits="userSpaceOnUse">&#10;		<stop
   offset="0"
   style="stop-color:#DCFFAB"
   id="stop13" />&#10;		<stop
   offset="1"
   style="stop-color:#B7D685"
   id="stop14" />&#10;	</radialGradient>&#10;	<circle
   class="st7"
   cx="491.6"
   cy="127.8"
   r="132.4"
   id="circle14" />&#10;</g>&#10;&#10;&#10;<g
   id="roll">&#10;	<polygon
   class="st11"
   points="534.5,223.7 513.5,210.6 491,210.6 470.4,210.6 449.5,223.7 395.8,223.7 369.6,250.4 369.8,251.6    393.3,269.1 413.2,281.9 427.4,286.6 444.6,292.8 466.8,297.1 480.5,297.9 491,297.9 503.5,297.9 517.2,297.1 539.3,292.8    556.6,286.6 570.8,281.9 590.8,269.1 614.3,251.6 615,251.3 587.3,223.7  "
   id="polygon49" />&#10;</g>&#10;<g
   id="indicateurs"
   style="fill:#ffffff;fill-opacity:1">&#10;	<text
   class="st12 st13 st14"
   id="text49"
   style="font-style:normal;font-variant:normal;font-weight:bold;font-stretch:normal;font-size:20px;font-family:Arial;-inkscape-font-specification:'Arial, Bold';font-variant-ligatures:normal;font-variant-caps:normal;font-variant-numeric:normal;font-variant-east-asian:normal;display:inline;fill:#ffffff;fill-opacity:1"
   inkscape:label="text49"
   x="456.56219"
   y="252.65958"><tspan
     sodipodi:role="line"
     id="tspan59"
     x="456.56219"
     y="252.65958">SPEED</tspan></text>&#10;	<text
   transform="translate(468.0341,272.4774)"
   class="st12 st13 st14"
   id="text50"
   style="display:none;fill:#ffffff;fill-opacity:1">[ W ]</text>&#10;</g>&#10;<g
   id="Calque_13">&#10;	<line
   class="st15"
   x1="391.6"
   y1="226.3"
   x2="398"
   y2="203.7"
   id="line50" />&#10;</g>&#10;<g
   id="contourCadran">&#10;	<path
   class="st16"
   d="M645.5-57H337.8c-17.1,0-31.2,14-31.2,31.2v307.6c0,17.1,14,31.2,31.2,31.2h307.6c17.1,0,31.2-14,31.2-31.2   V-25.8C676.6-43,662.6-57,645.5-57z M491.6,294.8c-92.1,0-166.8-74.7-166.8-166.8S399.5-38.8,491.6-38.8S658.5,35.9,658.5,128   S583.8,294.8,491.6,294.8z"
   id="path50" />&#10;</g>&#10;<g
   id="logo_1_">&#10;	<g
   id="g53">&#10;		<circle
   id="Fond"
   class="st17"
   cx="337.3"
   cy="-26.5"
   r="21.9" />&#10;		<g
   id="g52">&#10;			<path
   class="st18"
   d="M325.8-13.5c0-2.2,2.5-12.8,11.5-12.8s11.6-9.7,11.6-12.3"
   id="path51" />&#10;			<rect
   x="329.3"
   y="-38.5"
   class="st12"
   width="7"
   height="25.1"
   id="rect51" />&#10;			<rect
   x="338.3"
   y="-38.5"
   class="st12"
   width="7"
   height="25.1"
   id="rect52" />&#10;		</g>&#10;	</g>&#10;</g>&#10;<g
   id="logo_-_copie">&#10;	<g
   id="g55">&#10;		<circle
   id="Fond_1_"
   class="st17"
   cx="646"
   cy="-26.5"
   r="21.9" />&#10;		<g
   id="g54">&#10;			<path
   class="st18"
   d="M634.3-13.5c0-2.2,2.5-12.8,11.5-12.8s11.6-9.7,11.6-12.3"
   id="path53" />&#10;			<rect
   x="638"
   y="-38.5"
   class="st12"
   width="7"
   height="25.1"
   id="rect53" />&#10;			<rect
   x="647"
   y="-38.5"
   class="st12"
   width="7"
   height="25.1"
   id="rect54" />&#10;		</g>&#10;	</g>&#10;</g>&#10;<g
   id="logo_-_copie_2">&#10;	<g
   id="g57">&#10;		<circle
   id="Fond_2_"
   class="st17"
   cx="646"
   cy="282"
   r="21.9" />&#10;		<g
   id="g56">&#10;			<path
   class="st18"
   d="M634.3,295.1c0-2.2,2.5-12.8,11.5-12.8s11.6-9.7,11.6-12.3"
   id="path55" />&#10;			<rect
   x="638"
   y="270"
   class="st12"
   width="7"
   height="25.1"
   id="rect55" />&#10;			<rect
   x="647"
   y="270"
   class="st12"
   width="7"
   height="25.1"
   id="rect56" />&#10;		</g>&#10;	</g>&#10;</g>&#10;<g
   id="logo_-_copie_3">&#10;	<g
   id="g59">&#10;		<circle
   id="Fond_3_"
   class="st17"
   cx="337.2"
   cy="282"
   r="21.9" />&#10;		<g
   id="g58">&#10;			<path
   class="st18"
   d="M325.6,295.1c0-2.2,2.5-12.8,11.5-12.8s11.6-9.7,11.6-12.3"
   id="path57" />&#10;			<rect
   x="329.2"
   y="270"
   class="st12"
   width="7"
   height="25.1"
   id="rect57" />&#10;			<rect
   x="338.2"
   y="270"
   class="st12"
   width="7"
   height="25.1"
   id="rect58" />&#10;		</g>&#10;	</g>&#10;</g>&#10;<g
   id="Calque_14">&#10;</g>&#10;<g
   id="reperes"
   class="st0">&#10;</g>&#10;</svg>
